<svg xmlns="http://www.w3.org/2000/svg" xmlns:xlink="http://www.w3.org/1999/xlink" width="500" zoomAndPan="magnify" viewBox="0 0 375 374.999991" height="500" preserveAspectRatio="xMidYMid meet" version="1.0"><defs><clipPath id="id1"><path d="M 173 114 L 252 114 L 252 262.5 L 173 262.5 Z M 173 114 " clip-rule="nonzero"/></clipPath><clipPath id="id2"><path d="M 187.347656 262.40625 C 185.546875 262.40625 183.746094 262.050781 182.003906 261.3125 C 174.949219 258.351562 171.613281 250.1875 174.566406 243.117188 L 224.8125 123.007812 C 227.765625 115.9375 235.914062 112.59375 242.972656 115.550781 C 250.027344 118.511719 253.363281 126.675781 250.410156 133.746094 L 200.160156 253.855469 C 197.917969 259.210938 192.78125 262.40625 187.347656 262.40625 Z M 187.347656 262.40625 " clip-rule="nonzero"/></clipPath><clipPath id="id3"><path d="M 123 114 L 202 114 L 202 262.5 L 123 262.5 Z M 123 114 " clip-rule="nonzero"/></clipPath><clipPath id="id4"><path d="M 187.347656 262.40625 C 181.917969 262.40625 176.78125 259.210938 174.535156 253.886719 L 124.316406 133.777344 C 121.363281 126.707031 124.671875 118.539062 131.757812 115.582031 C 138.8125 112.625 146.960938 115.9375 149.914062 123.035156 L 200.164062 243.148438 C 203.113281 250.21875 199.808594 258.382812 192.722656 261.339844 C 190.949219 262.050781 189.148438 262.40625 187.347656 262.40625 Z M 187.347656 262.40625 " clip-rule="nonzero"/></clipPath></defs><g clip-path="url(#id1)"><g clip-path="url(#id2)"><path fill="#fefefe" d="M 171.613281 112.59375 L 171.613281 262.40625 L 253.363281 262.40625 L 253.363281 112.59375 Z M 171.613281 112.59375 " fill-opacity="1" fill-rule="nonzero"/></g></g><g clip-path="url(#id3)"><g clip-path="url(#id4)"><path fill="#fefefe" d="M 121.363281 112.625 L 121.363281 262.40625 L 203.113281 262.40625 L 203.113281 112.625 Z M 121.363281 112.625 " fill-opacity="1" fill-rule="nonzero"/></g></g></svg>